<svg width="355" height="334" viewBox="0 0 355 334" fill="none" xmlns="http://www.w3.org/2000/svg">
<rect y="338" width="338" height="355" transform="rotate(-90 0 338)" fill="#0803FF"/>
<path d="M22.8356 42V27.4545H24.5969V33.9318H32.3526V27.4545H34.114V42H32.3526V35.4943H24.5969V42H22.8356ZM37.6403 42V27.4545H39.4016V33.9318H47.1573V27.4545H48.9187V42H47.1573V35.4943H39.4016V42H37.6403ZM58.07 42V27.4545H63.1552C64.1684 27.4545 65.0041 27.6297 65.6623 27.9801C66.3204 28.3258 66.8105 28.7921 67.1325 29.3793C67.4544 29.9616 67.6154 30.608 67.6154 31.3182C67.6154 31.9432 67.5041 32.4593 67.2816 32.8665C67.0638 33.2737 66.775 33.5956 66.4151 33.8324C66.06 34.0691 65.6741 34.2443 65.2575 34.358V34.5C65.7025 34.5284 66.15 34.6847 66.5998 34.9688C67.0496 35.2528 67.426 35.66 67.729 36.1903C68.0321 36.7206 68.1836 37.3693 68.1836 38.1364C68.1836 38.8655 68.0179 39.5213 67.6864 40.1037C67.355 40.6861 66.8318 41.1477 66.1168 41.4886C65.4019 41.8295 64.4715 42 63.3256 42H58.07ZM59.8313 40.4375H63.3256C64.4762 40.4375 65.293 40.215 65.7759 39.7699C66.2636 39.3201 66.5075 38.7756 66.5075 38.1364C66.5075 37.6439 66.382 37.1894 66.131 36.7727C65.8801 36.3513 65.5226 36.0152 65.0586 35.7642C64.5946 35.5085 64.0453 35.3807 63.4109 35.3807H59.8313V40.4375ZM59.8313 33.8466H63.0984C63.6287 33.8466 64.1069 33.7424 64.533 33.5341C64.9639 33.3258 65.3048 33.0322 65.5558 32.6534C65.8114 32.2746 65.9393 31.8295 65.9393 31.3182C65.9393 30.679 65.7167 30.1368 65.2717 29.6918C64.8266 29.242 64.1211 29.017 63.1552 29.017H59.8313V33.8466ZM82.7823 32H81.021C80.9168 31.4934 80.7345 31.0483 80.4741 30.6648C80.2184 30.2812 79.9059 29.9593 79.5366 29.6989C79.172 29.4337 78.7672 29.2348 78.3221 29.1023C77.877 28.9697 77.413 28.9034 76.93 28.9034C76.0494 28.9034 75.2515 29.1259 74.5366 29.571C73.8263 30.0161 73.2605 30.6719 72.8391 31.5384C72.4225 32.4048 72.2141 33.4678 72.2141 34.7273C72.2141 35.9867 72.4225 37.0497 72.8391 37.9162C73.2605 38.7827 73.8263 39.4384 74.5366 39.8835C75.2515 40.3286 76.0494 40.5511 76.93 40.5511C77.413 40.5511 77.877 40.4848 78.3221 40.3523C78.7672 40.2197 79.172 40.0232 79.5366 39.7628C79.9059 39.4976 80.2184 39.1733 80.4741 38.7898C80.7345 38.4015 80.9168 37.9564 81.021 37.4545H82.7823C82.6497 38.1979 82.4083 38.8632 82.0579 39.4503C81.7075 40.0374 81.2719 40.5369 80.7511 40.9489C80.2302 41.3561 79.6455 41.6662 78.9968 41.8793C78.3529 42.0923 77.6639 42.1989 76.93 42.1989C75.6895 42.1989 74.5863 41.8958 73.6204 41.2898C72.6545 40.6837 71.8945 39.822 71.3406 38.7045C70.7866 37.5871 70.5096 36.2614 70.5096 34.7273C70.5096 33.1932 70.7866 31.8674 71.3406 30.75C71.8945 29.6326 72.6545 28.7708 73.6204 28.1648C74.5863 27.5587 75.6895 27.2557 76.93 27.2557C77.6639 27.2557 78.3529 27.3622 78.9968 27.5753C79.6455 27.7884 80.2302 28.1009 80.7511 28.5128C81.2719 28.92 81.7075 29.4171 82.0579 30.0043C82.4083 30.5866 82.6497 31.2519 82.7823 32ZM97.1626 27.4545V42H95.4581L87.532 30.5795H87.3899V42H85.6286V27.4545H87.3331L95.2876 38.9034H95.4297V27.4545H97.1626Z" fill="white"/>
<path d="M266.927 35L262.95 20.4545H264.739L267.779 32.3011H267.921L271.018 20.4545H273.006L276.103 32.3011H276.245L279.285 20.4545H281.075L277.097 35H275.279L272.069 23.4091H271.955L268.745 35H266.927ZM285.911 35L281.934 20.4545H283.724L286.763 32.3011H286.906L290.002 20.4545H291.991L295.087 32.3011H295.229L298.269 20.4545H300.059L296.082 35H294.263L291.053 23.4091H290.94L287.729 35H285.911ZM304.896 35L300.918 20.4545H302.708L305.748 32.3011H305.89L308.987 20.4545H310.975L314.072 32.3011H314.214L317.254 20.4545H319.043L315.066 35H313.248L310.038 23.4091H309.924L306.714 35H304.896ZM248.123 59V44.4545H256.844V46.017H249.884V50.9318H256.191V52.4943H249.884V59H248.123ZM259.861 59V44.4545H261.622V57.4375H268.384V59H259.861ZM271.111 59V44.4545H279.889V46.017H272.872V50.9318H279.435V52.4943H272.872V57.4375H280.003V59H271.111ZM283.916 44.4545L287.666 50.5057H287.78L291.53 44.4545H293.604L289.03 51.7273L293.604 59H291.53L287.78 53.0625H287.666L283.916 59H281.843L286.53 51.7273L281.843 44.4545H283.916ZM297.657 44.4545V59H295.896V44.4545H297.657ZM301.189 59V44.4545H306.274C307.288 44.4545 308.123 44.6297 308.781 44.9801C309.44 45.3258 309.93 45.7921 310.252 46.3793C310.574 46.9616 310.735 47.608 310.735 48.3182C310.735 48.9432 310.623 49.4593 310.401 49.8665C310.183 50.2737 309.894 50.5956 309.534 50.8324C309.179 51.0691 308.793 51.2443 308.377 51.358V51.5C308.822 51.5284 309.269 51.6847 309.719 51.9688C310.169 52.2528 310.545 52.66 310.848 53.1903C311.151 53.7206 311.303 54.3693 311.303 55.1364C311.303 55.8655 311.137 56.5213 310.806 57.1037C310.474 57.6861 309.951 58.1477 309.236 58.4886C308.521 58.8295 307.591 59 306.445 59H301.189ZM302.95 57.4375H306.445C307.595 57.4375 308.412 57.215 308.895 56.7699C309.383 56.3201 309.627 55.7756 309.627 55.1364C309.627 54.6439 309.501 54.1894 309.25 53.7727C308.999 53.3513 308.642 53.0152 308.178 52.7642C307.714 52.5085 307.164 52.3807 306.53 52.3807H302.95V57.4375ZM302.95 50.8466H306.218C306.748 50.8466 307.226 50.7424 307.652 50.5341C308.083 50.3258 308.424 50.0322 308.675 49.6534C308.931 49.2746 309.058 48.8295 309.058 48.3182C309.058 47.679 308.836 47.1368 308.391 46.6918C307.946 46.242 307.24 46.017 306.274 46.017H302.95V50.8466ZM314.197 59V44.4545H315.958V57.4375H322.72V59H314.197ZM325.447 59V44.4545H334.225V46.017H327.208V50.9318H333.771V52.4943H327.208V57.4375H334.339V59H325.447ZM257.782 68.4545L262.1 80.6989H262.27L266.589 68.4545H268.435L263.094 83H261.276L255.935 68.4545H257.782ZM272.462 68.4545V83H270.701V68.4545H272.462ZM283.948 72.0909C283.863 71.3712 283.517 70.8125 282.911 70.4148C282.305 70.017 281.562 69.8182 280.681 69.8182C280.037 69.8182 279.474 69.9223 278.991 70.1307C278.513 70.339 278.139 70.6255 277.869 70.9901C277.604 71.3546 277.471 71.7689 277.471 72.233C277.471 72.6212 277.563 72.955 277.748 73.2344C277.937 73.509 278.179 73.7386 278.472 73.9233C278.766 74.1032 279.074 74.2524 279.396 74.3707C279.718 74.4844 280.014 74.5767 280.284 74.6477L281.761 75.0455C282.14 75.1449 282.561 75.2822 283.025 75.4574C283.494 75.6326 283.941 75.8717 284.367 76.1747C284.798 76.473 285.153 76.8565 285.433 77.3253C285.712 77.794 285.852 78.3693 285.852 79.0511C285.852 79.8371 285.646 80.5473 285.234 81.1818C284.827 81.8163 284.23 82.3205 283.444 82.6946C282.663 83.0687 281.713 83.2557 280.596 83.2557C279.554 83.2557 278.652 83.0876 277.89 82.7514C277.133 82.4152 276.536 81.9465 276.1 81.3452C275.669 80.7438 275.426 80.0455 275.369 79.25H277.187C277.234 79.7992 277.419 80.2538 277.741 80.6136C278.068 80.9687 278.48 81.2339 278.977 81.4091C279.479 81.5795 280.018 81.6648 280.596 81.6648C281.268 81.6648 281.872 81.5559 282.407 81.3381C282.942 81.1155 283.366 80.8078 283.678 80.4148C283.991 80.017 284.147 79.553 284.147 79.0227C284.147 78.5398 284.012 78.1468 283.742 77.8438C283.472 77.5407 283.117 77.2945 282.677 77.1051C282.237 76.9157 281.761 76.75 281.249 76.608L279.46 76.0966C278.323 75.7699 277.424 75.3035 276.761 74.6974C276.098 74.0914 275.767 73.2983 275.767 72.3182C275.767 71.5038 275.987 70.7936 276.427 70.1875C276.872 69.5767 277.469 69.1032 278.217 68.767C278.97 68.4261 279.81 68.2557 280.738 68.2557C281.676 68.2557 282.509 68.4238 283.238 68.7599C283.967 69.0914 284.545 69.5459 284.971 70.1236C285.402 70.7012 285.629 71.357 285.653 72.0909H283.948ZM298.293 68.4545H300.055V78.0852C300.055 79.0795 299.82 79.9673 299.351 80.7486C298.887 81.5251 298.232 82.1383 297.384 82.5881C296.537 83.0331 295.542 83.2557 294.401 83.2557C293.26 83.2557 292.266 83.0331 291.418 82.5881C290.571 82.1383 289.912 81.5251 289.444 80.7486C288.98 79.9673 288.748 79.0795 288.748 78.0852V68.4545H290.509V77.9432C290.509 78.6534 290.665 79.2855 290.978 79.8395C291.29 80.3887 291.735 80.822 292.313 81.1392C292.895 81.4517 293.591 81.608 294.401 81.608C295.211 81.608 295.907 81.4517 296.489 81.1392C297.072 80.822 297.517 80.3887 297.824 79.8395C298.137 79.2855 298.293 78.6534 298.293 77.9432V68.4545ZM304.169 83H302.322L307.663 68.4545H309.481L314.822 83H312.975L308.629 70.7557H308.515L304.169 83ZM304.85 77.3182H312.294V78.8807H304.85V77.3182ZM317.088 83V68.4545H318.849V81.4375H325.61V83H317.088ZM253.646 96.0909C253.56 95.3712 253.215 94.8125 252.609 94.4148C252.003 94.017 251.259 93.8182 250.379 93.8182C249.735 93.8182 249.171 93.9223 248.688 94.1307C248.21 94.339 247.836 94.6255 247.566 94.9901C247.301 95.3546 247.168 95.7689 247.168 96.233C247.168 96.6212 247.261 96.955 247.445 97.2344C247.635 97.509 247.876 97.7386 248.17 97.9233C248.463 98.1032 248.771 98.2524 249.093 98.3707C249.415 98.4844 249.711 98.5767 249.981 98.6477L251.458 99.0455C251.837 99.1449 252.258 99.2822 252.722 99.4574C253.191 99.6326 253.638 99.8717 254.065 100.175C254.496 100.473 254.851 100.857 255.13 101.325C255.409 101.794 255.549 102.369 255.549 103.051C255.549 103.837 255.343 104.547 254.931 105.182C254.524 105.816 253.927 106.321 253.141 106.695C252.36 107.069 251.411 107.256 250.293 107.256C249.252 107.256 248.35 107.088 247.587 106.751C246.83 106.415 246.233 105.946 245.798 105.345C245.367 104.744 245.123 104.045 245.066 103.25H246.884C246.932 103.799 247.116 104.254 247.438 104.614C247.765 104.969 248.177 105.234 248.674 105.409C249.176 105.58 249.716 105.665 250.293 105.665C250.966 105.665 251.569 105.556 252.104 105.338C252.639 105.116 253.063 104.808 253.376 104.415C253.688 104.017 253.844 103.553 253.844 103.023C253.844 102.54 253.71 102.147 253.44 101.844C253.17 101.541 252.815 101.295 252.374 101.105C251.934 100.916 251.458 100.75 250.947 100.608L249.157 100.097C248.021 99.7699 247.121 99.3035 246.458 98.6974C245.795 98.0914 245.464 97.2983 245.464 96.3182C245.464 95.5038 245.684 94.7936 246.124 94.1875C246.569 93.5767 247.166 93.1032 247.914 92.767C248.667 92.4261 249.507 92.2557 250.435 92.2557C251.373 92.2557 252.206 92.4238 252.935 92.7599C253.665 93.0914 254.242 93.5459 254.668 94.1236C255.099 94.7012 255.326 95.357 255.35 96.0909H253.646ZM257.195 92.4545H259.212L263.246 99.2443H263.417L267.451 92.4545H269.468L264.212 101.006V107H262.451V101.006L257.195 92.4545ZM279.7 96.0909C279.615 95.3712 279.269 94.8125 278.663 94.4148C278.057 94.017 277.314 93.8182 276.433 93.8182C275.789 93.8182 275.226 93.9223 274.743 94.1307C274.265 94.339 273.891 94.6255 273.621 94.9901C273.356 95.3546 273.223 95.7689 273.223 96.233C273.223 96.6212 273.315 96.955 273.5 97.2344C273.689 97.509 273.931 97.7386 274.224 97.9233C274.518 98.1032 274.826 98.2524 275.148 98.3707C275.47 98.4844 275.766 98.5767 276.036 98.6477L277.513 99.0455C277.892 99.1449 278.313 99.2822 278.777 99.4574C279.246 99.6326 279.693 99.8717 280.119 100.175C280.55 100.473 280.905 100.857 281.185 101.325C281.464 101.794 281.604 102.369 281.604 103.051C281.604 103.837 281.398 104.547 280.986 105.182C280.579 105.816 279.982 106.321 279.196 106.695C278.415 107.069 277.465 107.256 276.348 107.256C275.306 107.256 274.404 107.088 273.642 106.751C272.884 106.415 272.288 105.946 271.852 105.345C271.421 104.744 271.178 104.045 271.121 103.25H272.939C272.986 103.799 273.171 104.254 273.493 104.614C273.82 104.969 274.232 105.234 274.729 105.409C275.231 105.58 275.77 105.665 276.348 105.665C277.02 105.665 277.624 105.556 278.159 105.338C278.694 105.116 279.118 104.808 279.43 104.415C279.743 104.017 279.899 103.553 279.899 103.023C279.899 102.54 279.764 102.147 279.494 101.844C279.224 101.541 278.869 101.295 278.429 101.105C277.989 100.916 277.513 100.75 277.001 100.608L275.212 100.097C274.075 99.7699 273.176 99.3035 272.513 98.6974C271.85 98.0914 271.518 97.2983 271.518 96.3182C271.518 95.5038 271.739 94.7936 272.179 94.1875C272.624 93.5767 273.221 93.1032 273.969 92.767C274.722 92.4261 275.562 92.2557 276.49 92.2557C277.428 92.2557 278.261 92.4238 278.99 92.7599C279.719 93.0914 280.297 93.5459 280.723 94.1236C281.154 94.7012 281.381 95.357 281.405 96.0909H279.7ZM283.704 94.017V92.4545H294.613V94.017H290.039V107H288.278V94.017H283.704ZM297.332 107V92.4545H306.11V94.017H299.093V98.9318H305.656V100.494H299.093V105.438H306.224V107H297.332ZM309.285 92.4545H311.387L316.33 104.528H316.501L321.444 92.4545H323.546V107H321.898V95.9489H321.756L317.211 107H315.62L311.075 95.9489H310.933V107H309.285V92.4545ZM335.032 96.0909C334.947 95.3712 334.601 94.8125 333.995 94.4148C333.389 94.017 332.646 93.8182 331.765 93.8182C331.121 93.8182 330.558 93.9223 330.075 94.1307C329.597 94.339 329.223 94.6255 328.953 94.9901C328.688 95.3546 328.555 95.7689 328.555 96.233C328.555 96.6212 328.647 96.955 328.832 97.2344C329.021 97.509 329.263 97.7386 329.556 97.9233C329.85 98.1032 330.158 98.2524 330.48 98.3707C330.802 98.4844 331.098 98.5767 331.368 98.6477L332.845 99.0455C333.224 99.1449 333.645 99.2822 334.109 99.4574C334.578 99.6326 335.025 99.8717 335.451 100.175C335.882 100.473 336.237 100.857 336.517 101.325C336.796 101.794 336.936 102.369 336.936 103.051C336.936 103.837 336.73 104.547 336.318 105.182C335.911 105.816 335.314 106.321 334.528 106.695C333.747 107.069 332.797 107.256 331.68 107.256C330.638 107.256 329.736 107.088 328.974 106.751C328.217 106.415 327.62 105.946 327.184 105.345C326.753 104.744 326.51 104.045 326.453 103.25H328.271C328.318 103.799 328.503 104.254 328.825 104.614C329.152 104.969 329.564 105.234 330.061 105.409C330.563 105.58 331.102 105.665 331.68 105.665C332.352 105.665 332.956 105.556 333.491 105.338C334.026 105.116 334.45 104.808 334.762 104.415C335.075 104.017 335.231 103.553 335.231 103.023C335.231 102.54 335.096 102.147 334.826 101.844C334.556 101.541 334.201 101.295 333.761 101.105C333.321 100.916 332.845 100.75 332.333 100.608L330.544 100.097C329.407 99.7699 328.508 99.3035 327.845 98.6974C327.182 98.0914 326.85 97.2983 326.85 96.3182C326.85 95.5038 327.071 94.7936 327.511 94.1875C327.956 93.5767 328.553 93.1032 329.301 92.767C330.054 92.4261 330.894 92.2557 331.822 92.2557C332.76 92.2557 333.593 92.4238 334.322 92.7599C335.051 93.0914 335.629 93.5459 336.055 94.1236C336.486 94.7012 336.713 95.357 336.737 96.0909H335.032ZM267.34 131.114C266.989 131.114 266.689 130.988 266.438 130.737C266.187 130.486 266.061 130.186 266.061 129.835C266.061 129.485 266.187 129.184 266.438 128.933C266.689 128.682 266.989 128.557 267.34 128.557C267.69 128.557 267.991 128.682 268.242 128.933C268.493 129.184 268.618 129.485 268.618 129.835C268.618 130.067 268.559 130.28 268.441 130.474C268.327 130.669 268.173 130.825 267.979 130.943C267.789 131.057 267.576 131.114 267.34 131.114ZM273.615 116.455V131H271.853V116.455H273.615ZM288.68 116.455V131H286.976L279.05 119.58H278.907V131H277.146V116.455H278.851L286.805 127.903H286.947V116.455H288.68ZM292.205 131V116.455H300.926V118.017H293.966V122.932H300.273V124.494H293.966V131H292.205ZM316.216 123.727C316.216 125.261 315.939 126.587 315.385 127.705C314.831 128.822 314.071 129.684 313.105 130.29C312.139 130.896 311.036 131.199 309.795 131.199C308.555 131.199 307.452 130.896 306.486 130.29C305.52 129.684 304.76 128.822 304.206 127.705C303.652 126.587 303.375 125.261 303.375 123.727C303.375 122.193 303.652 120.867 304.206 119.75C304.76 118.633 305.52 117.771 306.486 117.165C307.452 116.559 308.555 116.256 309.795 116.256C311.036 116.256 312.139 116.559 313.105 117.165C314.071 117.771 314.831 118.633 315.385 119.75C315.939 120.867 316.216 122.193 316.216 123.727ZM314.511 123.727C314.511 122.468 314.3 121.405 313.879 120.538C313.462 119.672 312.897 119.016 312.182 118.571C311.471 118.126 310.676 117.903 309.795 117.903C308.915 117.903 308.117 118.126 307.402 118.571C306.692 119.016 306.126 119.672 305.704 120.538C305.288 121.405 305.079 122.468 305.079 123.727C305.079 124.987 305.288 126.05 305.704 126.916C306.126 127.783 306.692 128.438 307.402 128.884C308.117 129.329 308.915 129.551 309.795 129.551C310.676 129.551 311.471 129.329 312.182 128.884C312.897 128.438 313.462 127.783 313.879 126.916C314.3 126.05 314.511 124.987 314.511 123.727Z" fill="white"/>
</svg>
